<?xml version="1.0" encoding="utf-8"?>
<!-- Generator: Adobe Illustrator 27.0.1, SVG Export Plug-In . SVG Version: 6.00 Build 0)  -->
<svg version="1.1" id="Layer_1" xmlns="http://www.w3.org/2000/svg" xmlns:xlink="http://www.w3.org/1999/xlink" x="0px" y="0px"
	 viewBox="0 0 419.9 103.2" style="enable-background:new 0 0 419.9 103.2;" xml:space="preserve">
<path style="fill:#F5D60B;" d="M113,83.9c-0.5-0.1-1.4-0.1-1.7-0.1c-1.7,0-1.9,0.2-2.6,2.8h2.1c0.1,0.2,0.1,0.7,0.1,1
	c-0.1,0.9-0.6,1.7-2.1,1.7c-0.2,0-0.4,0-0.7-0.1l-1.7,7.1c-1.1,4.7-3.2,6.8-6.4,6.8c-1.4,0-2-0.6-1.9-1.6c0-0.3,0.1-0.6,0.3-0.9
	c2.9,0,3-0.1,3.9-4l1.8-7.5h-1.3c-0.2-0.2-0.2-0.7-0.1-1.1c0.1-1.1,0.8-1.5,2.2-1.5c1.3-4.6,2.9-5.7,6.4-5.7c1.7,0,2.5,0.6,2.3,1.5
	C113.6,83.1,113.3,83.5,113,83.9"/>
<path style="fill:#F5D60B;" d="M121.3,89.8c-0.6-0.1-0.9-0.1-1.2-0.1c-1.3,0-2.3,0.6-3.6,2.6l-1.5,5.5c-0.5,0.2-1.4,0.2-2,0.2
	c-1.2,0-1.7-0.5-1.6-1.5c0-0.3,0.2-0.8,0.4-1.6l1.6-5.8l-1.3,0c-0.2-0.3-0.2-0.6-0.1-1c0.2-1.2,1.3-1.7,3.8-1.7c1.6,0,2,0.4,1.7,1.3
	l-0.6,1.8c1.6-2.6,2.2-3.1,3.7-3.1c1.3,0,1.6,0.7,1.5,1.6C122.1,88.9,121.7,89.4,121.3,89.8"/>
<path style="fill:#F5D60B;" d="M124.5,98.1c-1.3,0-2.1-0.5-1.9-1.7c0.1-0.5,0.3-1.2,0.4-1.8l1.7-5.4l-1.3,0c-0.2-0.3-0.2-0.6-0.1-1
	c0.2-1.2,1.3-1.7,3.8-1.7c1.8,0,2.1,0.5,1.8,1.7l-1.2,4.3c-0.4,1.3-0.7,2.1-0.7,2.5c0,0.2,0,0.4,0.4,0.4c0.2,0,0.7,0,1-0.1
	c0.3,0.2,0.4,0.6,0.3,0.9C128.4,97.5,127.1,98.1,124.5,98.1 M128.3,85c-1,0-1.9-0.4-1.7-1.7c0.2-1.2,1.2-2.1,2.6-2.1
	c1.3,0,1.8,0.7,1.6,1.8C130.7,84.1,129.7,85,128.3,85"/>
<path style="fill:#F5D60B;" d="M135.3,93.3c-0.7,0-1,0-1.5-0.1c-0.2,1.7,0.9,2.2,2.1,2.2c1.2,0,2.1-0.3,3.3-0.7
	c0.5,0.2,0.7,0.7,0.6,1.3c-0.2,1.2-1.9,2.2-5.2,2.2c-3.1,0-5.2-1.2-4.7-4.7c0.6-4.3,3.3-6.9,7.5-6.9c2.6,0,4,1.3,3.7,3.2
	C140.6,92,138.9,93.3,135.3,93.3 M136.7,89.1c-1.1,0-2,0.9-2.5,2.3c0.4,0.1,0.8,0.1,1.3,0.1c1.4,0,2.1-0.6,2.2-1.4
	C137.7,89.5,137.6,89.1,136.7,89.1"/>
<path style="fill:#F5D60B;" d="M143.4,98.1c-1.2,0-1.7-0.5-1.6-1.5c0-0.3,0.2-0.8,0.4-1.6l1.6-5.8l-1.3,0c-0.2-0.3-0.2-0.6-0.1-1
	c0.2-1.2,1.3-1.7,3.7-1.7c1.6,0,2,0.4,1.7,1.3l-0.3,1c1.2-1.6,2.4-2.3,4.5-2.3c2.2,0,3,0.9,2.8,2.7c-0.2,1.4-0.9,3.2-1.3,4.5
	c-0.1,0.5-0.3,1-0.4,1.5c0,0.2,0.1,0.3,0.4,0.3c0.3,0,0.6,0,1-0.1c0.3,0.2,0.4,0.6,0.3,0.9c-0.2,1.3-1.5,1.8-4.2,1.8
	c-1.2,0-2-0.5-1.8-1.7c0.1-0.6,0.3-1.3,0.5-1.9c0.2-0.5,1.4-4.1,1.5-4.5c0.1-0.4,0-0.9-1-0.9c-0.8,0-1.7,0.4-2.4,1.3l-2,7.4
	C144.8,98,144,98.1,143.4,98.1"/>
<path style="fill:#F5D60B;" d="M165.2,98.1c-1,0-1.7-0.4-1.5-1.6c0-0.1,0.1-0.3,0.1-0.4c-0.9,1.5-2.3,2-3.8,2
	c-2.6,0-3.9-1.1-3.4-4.3c0.7-4.8,3.6-7.2,6.7-7.2c1.2,0,1.9,0.2,2.3,0.5l1.1-3.8c0.5-1.7,1.1-2.1,2.5-2.1c0.8,0,1.5,0.2,1.9,0.6
	l-3.2,11.5c-0.3,1-0.4,1.5-0.4,1.8c0,0.3,0,0.5,0.4,0.5c0.2,0,0.7,0,1-0.1c0.3,0.2,0.3,0.5,0.3,0.9
	C168.9,97.5,167.5,98.1,165.2,98.1 M163.8,89.1c-1.7,0-3,1.4-3.4,4.2c-0.2,1.7,0.3,2.2,1.4,2.2c0.6,0,1.2-0.2,1.6-0.6l1.5-5.5
	C164.6,89.1,164.3,89.1,163.8,89.1"/>
<path style="fill:#F5D60B;" d="M172.3,98.1c-1.2,0-1.9-0.5-1.8-1.7c0.1-0.6,0.3-1.3,0.4-1.9l3.1-11.2c0.5-1.7,1.1-2.1,2.5-2.1
	c0.8,0,1.5,0.2,1.9,0.6l-3.2,12c-0.3,0.9-0.4,1.3-0.4,1.5c0,0.2,0.1,0.3,0.4,0.3c0.2,0,0.6,0,1-0.1c0.2,0.2,0.3,0.6,0.3,0.9
	C176.3,97.5,175,98.1,172.3,98.1"/>
<path style="fill:#F5D60B;" d="M184.9,98.2c-3.1,3-5.5,4.7-8,4.7c-1.4,0-2.1-0.9-2.1-1.9c0-0.4,0.3-0.9,0.3-0.9c1.9,0,4-1,4.7-2.2
	v-9.2H179c-0.2-0.3-0.2-0.8-0.1-1.2c0.2-1.3,0.7-1.4,3-1.4c1.4,0,1.7,0.4,1.7,1.6V95c0.2-0.2,0.4-0.5,0.6-0.7c1.1-1.5,2-3.5,2.5-5.5
	c0.2-0.8,0.3-1.5,0.3-2.3c0.1-0.1,0.2-0.1,0.3-0.2c0.4-0.2,0.9-0.3,1.4-0.3c1.6,0,2.3,0.7,2.1,2.2C190.3,90.8,188.6,94.6,184.9,98.2
	"/>
<path style="fill:#F5D60B;" d="M201.3,88.4c1-1.2,2-1.9,4.1-1.9c2.2,0,3,0.9,2.8,2.7c-0.2,1.4-0.9,3.2-1.3,4.5
	c-0.1,0.5-0.3,1-0.4,1.5c0,0.2,0.1,0.3,0.4,0.3c0.2,0,0.6,0,1-0.1c0.3,0.2,0.4,0.6,0.3,0.9c-0.2,1.3-1.5,1.8-4.2,1.8
	c-1.2,0-2-0.5-1.8-1.7c0.1-0.6,0.3-1.3,0.5-1.9c0.2-0.6,1.4-4.1,1.5-4.5c0.1-0.4,0-0.9-1-0.9c-0.8,0-1.7,0.4-2.4,1.3l-2,7.4
	c-0.5,0.2-1.4,0.2-2,0.2c-1.2,0-1.7-0.5-1.5-1.5c0-0.3,0.2-0.8,0.4-1.6l3.2-11.7c0.5-1.7,1.1-2.1,2.5-2.1c0.8,0,1.5,0.2,1.9,0.6
	L201.3,88.4z"/>
<path style="fill:#F5D60B;" d="M214,98.1c-3.1,0-5-1.4-4.5-4.9c0.6-4.1,3.4-6.8,7.7-6.8c4,0,5.1,2,4.7,4.9
	C221.2,95.5,218.4,98.1,214,98.1 M216.5,89.1c-1.7,0-2.9,1.7-3.2,4c-0.2,1.6,0.1,2.4,1.5,2.4c1.5,0,2.9-1.5,3.2-4
	C218.3,89.9,218,89.1,216.5,89.1"/>
<path style="fill:#F5D60B;" d="M231.4,90.3c0.2-0.6,0-1.1-0.8-1.1c-0.8,0-1.7,0.4-2.4,1.3l-2,7.4c-0.6,0.2-1.4,0.2-2,0.2
	c-1.2,0-1.7-0.5-1.6-1.5c0-0.3,0.2-0.8,0.4-1.6l1.6-5.8l-1.3,0c-0.2-0.3-0.2-0.6-0.1-1c0.2-1.2,1.3-1.7,3.7-1.7c1.6,0,2,0.4,1.7,1.3
	l-0.3,1c1.2-1.6,2.4-2.3,4.5-2.3c2,0,2.8,0.8,2.7,2.2c1.1-1.5,2.4-2.2,4.3-2.2c2.1,0,2.9,0.9,2.7,2.7c-0.2,1.4-0.9,3.2-1.3,4.5
	c-0.2,0.7-0.3,1.2-0.4,1.5c0,0.2,0.1,0.3,0.4,0.3c0.3,0,0.6,0,1-0.1c0.3,0.2,0.4,0.6,0.3,0.9c-0.2,1.3-1.6,1.8-4.2,1.8
	c-1.3,0-1.9-0.6-1.8-1.8c0.1-0.6,0.3-1.2,0.4-1.8c0.1-0.4,1.4-4.1,1.5-4.6c0.1-0.5-0.2-0.8-0.9-0.8c-0.9,0-1.7,0.6-2.3,1.3l-2,7.4
	c-0.5,0.2-1.4,0.2-2,0.2c-1.2,0-1.7-0.5-1.6-1.5c0-0.3,0.2-0.8,0.4-1.6L231.4,90.3z"/>
<path style="fill:#F5D60B;" d="M249.4,93.3c-0.7,0-1,0-1.5-0.1c-0.2,1.7,0.9,2.2,2.1,2.2c1.2,0,2.1-0.3,3.3-0.7
	c0.5,0.2,0.7,0.7,0.6,1.3c-0.2,1.2-1.9,2.2-5.2,2.2c-3.1,0-5.2-1.2-4.7-4.7c0.6-4.3,3.3-6.9,7.5-6.9c2.6,0,4,1.3,3.7,3.2
	C254.7,92,253,93.3,249.4,93.3 M250.8,89.1c-1.1,0-2,0.9-2.5,2.3c0.4,0.1,0.8,0.1,1.3,0.1c1.4,0,2.1-0.6,2.2-1.4
	C251.8,89.5,251.6,89.1,250.8,89.1"/>
<path style="fill:#F5D60B;" d="M142.4,68.1h-14.9l-11.3-18.6h-0.4v18.6h-11.7V19.7H122c9.1,0,16,4.6,16,14.9
	c0,6.7-3.5,12.5-10.1,13.7L142.4,68.1z M119.8,29.2h-3.9v12h3.9c3.3,0,6-2.7,6-6C125.8,31.9,123,29.2,119.8,29.2"/>
<path style="fill:#F5D60B;" d="M270.9,39.3h0.1c2.6-3.7,5.9-5.2,9.9-5.2c4.5,0,8.4,1.9,10.7,6.3c2.1-4.1,6.3-6.3,10.6-6.3
	c7.9,0,10.7,5.5,10.7,13v21h-11.1V52.4c0-3.4,0.1-9-4.6-9c-5.1,0-5.3,5.1-5.3,9v15.7h-11.1V52.4c0-3.7,0-9.2-4.9-9.2
	c-4.9,0-4.9,5.6-4.9,9.2v15.7h-11.1V35.2h11.1V39.3z"/>
<polygon style="fill:#F5D60B;" points="368.4,51.3 374.6,35.2 381.6,35.2 388.4,51.4 394.9,35.2 405.7,35.2 393.1,68.1 385,68.1 
	378.2,51.8 371.4,68.1 363.3,68.1 350.8,35.2 362,35.2 "/>
<path style="fill:#F5D60B;" d="M334.3,34.4c-9.6,0-17.4,7.8-17.4,17.4c0,9.6,7.8,17.4,17.4,17.4c9.6,0,17.4-7.8,17.4-17.4
	C351.7,42.2,343.9,34.4,334.3,34.4 M334.3,58.3c-3.6,0-6.5-2.9-6.5-6.5c0-3.6,2.9-6.5,6.5-6.5c3.6,0,6.5,2.9,6.5,6.5
	C340.7,55.4,337.8,58.3,334.3,58.3"/>
<path style="fill:#F5D60B;" d="M238.7,34.4c-9.6,0-17.4,7.8-17.4,17.4c0,9.6,7.8,17.4,17.4,17.4c9.6,0,17.4-7.8,17.4-17.4
	C256.1,42.2,248.3,34.4,238.7,34.4 M238.7,58.3c-3.6,0-6.5-2.9-6.5-6.5c0-3.6,2.9-6.5,6.5-6.5c3.6,0,6.5,2.9,6.5,6.5
	C245.2,55.4,242.3,58.3,238.7,58.3"/>
<path style="fill:#F5D60B;" d="M158.5,34.4c-9.6,0-17.4,7.8-17.4,17.4c0,9.6,7.8,17.4,17.4,17.4c9.6,0,17.4-7.8,17.4-17.4
	C175.9,42.2,168.1,34.4,158.5,34.4 M158.5,58.3c-3.6,0-6.5-2.9-6.5-6.5c0-3.6,2.9-6.5,6.5-6.5c3.6,0,6.5,2.9,6.5,6.5
	C165,55.4,162.1,58.3,158.5,58.3"/>
<path style="fill:#F5D60B;" d="M202.2,34.4c-3.8,0-7.7,1.4-10.2,4.3v-19h-11.7v48.7H192v-3.7h0.1c2.1,3.3,6.1,4.7,9.9,4.7
	c9.8,0,15.4-9.8,15.4-17.5C217.4,43.9,211.9,34.4,202.2,34.4 M199.1,58.3c-3.6,0-6.5-2.9-6.5-6.5c0-3.6,2.9-6.5,6.5-6.5
	c3.6,0,6.5,2.9,6.5,6.5C205.6,55.4,202.7,58.3,199.1,58.3"/>
<g>
	<defs>
		<rect id="SVGID_1_" x="408" y="34.7" width="11.9" height="11.9"/>
	</defs>
	<clipPath id="SVGID_00000147196745572639732800000010339431409941526689_">
		<use xlink:href="#SVGID_1_"  style="overflow:visible;"/>
	</clipPath>
	<g style="clip-path:url(#SVGID_00000147196745572639732800000010339431409941526689_);">
		<defs>
			<rect id="SVGID_00000168799516891904495110000016285608724697305223_" x="408" y="34.7" width="11.9" height="11.9"/>
		</defs>
		<clipPath id="SVGID_00000106126241250325751950000017274549002459864489_">
			<use xlink:href="#SVGID_00000168799516891904495110000016285608724697305223_"  style="overflow:visible;"/>
		</clipPath>
		<path style="clip-path:url(#SVGID_00000106126241250325751950000017274549002459864489_);fill:#F5D60B;" d="M414,34.7
			c-3.3,0-5.9,2.7-5.9,5.9c0,3.3,2.7,5.9,5.9,5.9c3.3,0,5.9-2.7,5.9-5.9C419.9,37.4,417.2,34.7,414,34.7"/>
	</g>
</g>
<g>
	<path style="fill:#FFFFFF;" d="M417.3,44.2h-2.2l-1.6-2.6h0v2.6h-1.8v-6.8h2.6c0.7,0,1.2,0.2,1.7,0.5c0.4,0.3,0.7,0.9,0.7,1.6
		c0,0.5-0.1,0.9-0.4,1.2c-0.2,0.3-0.6,0.6-1.1,0.7L417.3,44.2z M413.5,40.5h0.2c0.2,0,0.3,0,0.4,0c0.1,0,0.3-0.1,0.4-0.1
		c0.1-0.1,0.2-0.1,0.3-0.3c0.1-0.1,0.1-0.3,0.1-0.4c0-0.2,0-0.3-0.1-0.5c-0.1-0.1-0.2-0.2-0.3-0.3c-0.1-0.1-0.2-0.1-0.4-0.1
		c-0.1,0-0.1,0-0.2,0c-0.1,0-0.2,0-0.2,0h-0.2V40.5z"/>
</g>
<path style="fill:#F5D60B;" d="M44.2,0C19.8,0,0,19.8,0,44.2c0,24.4,19.8,44.2,44.2,44.2c24.4,0,44.2-19.8,44.2-44.2
	C88.5,19.8,68.7,0,44.2,0z M64.2,67.9H51.3H39.4h-8.5c-1.3,0-2.1-1-2.1-2.1V22.4c0-1.5,1-2.3,2.2-2.3h15.2c9.5,0,16,4.5,16,14.7
	c0,5.8-2.9,11.2-8.5,13.1c-0.5,0.2-1,0.9-0.5,1.7L65.1,66C65.7,66.8,65.3,67.9,64.2,67.9z"/>
<path style="fill:#F5D60B;" d="M49.5,35.1c0,2.9-2.4,5.3-5.3,5.3c-2.9,0-5.3-2.4-5.3-5.3c0-2.9,2.4-5.3,5.3-5.3
	C47.2,29.9,49.5,32.2,49.5,35.1"/>
</svg>
